<svg xmlns="http://www.w3.org/2000/svg" width="25" height="25" viewBox="0 0 25 25">
  <path id="qr-code" d="M0,4.688V.977A.976.976,0,0,1,.977,0H4.688a.977.977,0,0,1,0,1.953H1.953V4.688A.977.977,0,0,1,0,4.688ZM24.023,0h-3.71a.977.977,0,0,0,0,1.953h2.734V4.688a.977.977,0,0,0,1.953,0V.977A.976.976,0,0,0,24.023,0ZM4.688,23.047H1.953V20.313a.977.977,0,0,0-1.953,0v3.711A.976.976,0,0,0,.977,25H4.688a.977.977,0,0,0,0-1.953Zm19.336-3.711a.976.976,0,0,0-.977.977v2.734H20.313a.977.977,0,0,0,0,1.953h3.711A.976.976,0,0,0,25,24.023v-3.71a.976.976,0,0,0-.977-.977ZM11.646,4.81v5.859a.976.976,0,0,1-.977.977H4.81a.976.976,0,0,1-.977-.977V4.81a.976.976,0,0,1,.977-.977h5.859a.976.976,0,0,1,.977.977Zm-1.953.977H5.786V9.692H9.692Zm10.986,5.859h-5.86a.976.976,0,0,1-.977-.977V4.81a.976.976,0,0,1,.977-.977h5.859a.976.976,0,0,1,.977.977v5.859a.976.976,0,0,1-.976.977ZM19.7,5.786H15.8V9.692h3.9Zm-8.057,9.033v5.859a.976.976,0,0,1-.977.977H4.81a.976.976,0,0,1-.977-.977V14.819a.976.976,0,0,1,.977-.977h5.859a.976.976,0,0,1,.977.977ZM9.692,15.8H5.786v3.9H9.692Zm9.729,4.6H16.077a.976.976,0,0,1-.977-.977V16.077a.976.976,0,0,1,.977-.977h3.345a.976.976,0,0,1,.977.977v3.345a.976.976,0,0,1-.978.978Zm-.977-3.345H17.053v1.392h1.392Zm0,0" fill="#204766"/>
</svg>
