<svg xmlns="http://www.w3.org/2000/svg" width="25" height="27.273" viewBox="0 0 25 27.273">
  <g id="share" transform="translate(0 0)">
    <path id="Path_1" data-name="Path 1" d="M322.054,19.693A3.693,3.693,0,1,1,318.361,16,3.693,3.693,0,0,1,322.054,19.693Zm0,0" transform="translate(-297.907 -15.148)" fill="#204766"/>
    <path id="Path_2" data-name="Path 2" d="M303.213,9.091a4.545,4.545,0,1,1,4.545-4.546A4.55,4.55,0,0,1,303.213,9.091Zm0-7.386a2.841,2.841,0,1,0,2.841,2.841A2.844,2.844,0,0,0,303.213,1.7Zm0,0" transform="translate(-282.759)" fill="#204766"/>
    <path id="Path_3" data-name="Path 3" d="M322.054,361.025a3.693,3.693,0,1,1-3.693-3.693A3.693,3.693,0,0,1,322.054,361.025Zm0,0" transform="translate(-297.907 -338.298)" fill="#204766"/>
    <path id="Path_4" data-name="Path 4" d="M303.213,350.423a4.546,4.546,0,1,1,4.545-4.545A4.55,4.55,0,0,1,303.213,350.423Zm0-7.386a2.841,2.841,0,1,0,2.841,2.841A2.844,2.844,0,0,0,303.213,343.037Zm0,0" transform="translate(-282.759 -323.15)" fill="#204766"/>
    <path id="Path_5" data-name="Path 5" d="M23.387,190.361a3.693,3.693,0,1,1-3.693-3.693A3.693,3.693,0,0,1,23.387,190.361Zm0,0" transform="translate(-15.148 -176.725)" fill="#204766"/>
    <path id="Path_6" data-name="Path 6" d="M4.545,179.759a4.545,4.545,0,1,1,4.546-4.545,4.55,4.55,0,0,1-4.546,4.545Zm0-7.386a2.841,2.841,0,1,0,2.841,2.841,2.844,2.844,0,0,0-2.841-2.841Zm0,0" transform="translate(0 -161.577)" fill="#204766"/>
    <path id="Path_7" data-name="Path 7" d="M115.486,98.5a1.136,1.136,0,0,1-.564-2.124l10.544-6.011a1.137,1.137,0,1,1,1.125,1.975l-10.544,6.011a1.129,1.129,0,0,1-.561.149Zm0,0" transform="translate(-108.257 -85.409)" fill="#204766"/>
    <path id="Path_8" data-name="Path 8" d="M126.051,274.5a1.129,1.129,0,0,1-.561-.149l-10.544-6.011a1.137,1.137,0,0,1,1.125-1.975l10.544,6.011a1.137,1.137,0,0,1-.564,2.124Zm0,0" transform="translate(-108.279 -252.038)" fill="#204766"/>
  </g>
</svg>
